<?xml version="1.0" encoding="utf-8"?>
<!-- Generator: Adobe Illustrator 18.1.1, SVG Export Plug-In . SVG Version: 6.00 Build 0)  -->
<svg version="1.1" id="Layer_1" xmlns="http://www.w3.org/2000/svg" xmlns:xlink="http://www.w3.org/1999/xlink" x="0px" y="0px"
	 viewBox="197.3 357.7 505.7 183.4" enable-background="new 197.3 357.7 505.7 183.4" xml:space="preserve">
<g>
	<g>
		<path fill="#FFFFFF" d="M257.3,486.8l-2.5,9.3H236l-9.3,43.2h-18l18-83.5c-9.6,0.6-16.3,6-16.3,25.9c0,6.3,1.7,7.3,1.7,8.4
			c-8.6,0-13.4-3.1-13.4-12.1c0-16.6,11.8-32.5,42.6-32.5c5.1,0,12.9,1.5,20.8,1.5c3.9,0,7.7-0.4,11.3-1.5
			c-1.7,5.2-2.1,12.9-11.8,15c-5.8,0-11.7-1.1-17.6-2.4l-6.2,28.8h19.4V486.8z"/>
		<path fill="#FFFFFF" d="M306.8,493.7c0.7,0.7,1.8,1.1,3.7,1.1c5.9,0,8.4-4.2,13.1-6.2l0.6,2.7c-3.9,4.9-10.4,9-17.6,11
			c-2.4,25.2-16,37.5-28.5,37.5c-13.4,0-19.1-5.6-19.1-20.5c0-30.8,15.6-44,32.9-44C303.5,475.4,306.5,484.7,306.8,493.7z
			 M297.2,503.7c-3.7,0-5.2-2.7-5.2-5.6c0-3.7,2.1-7.5,5.5-8.7c-0.4-4.1-1.7-6.5-5.2-6.5c-11.8,0-16.7,25.5-16.7,35.6
			c0,7.5,3.5,9.6,8.4,9.6C291.4,527.8,295.6,515.8,297.2,503.7z"/>
		<path fill="#FFFFFF" d="M345,451.7l-14.3,67.5c-0.4,1.8-0.6,3-0.6,3.9c0,2.8,1.4,4.6,6.2,4.6c5.1,0,11.5-7,16.5-11h4.2
			c-5.8,5.8-19.8,22.4-29.7,22.4c-9.6,0-15.5-4.2-15.5-13.6c0-1.8,0.3-3.9,0.7-6.3l13.9-65L345,451.7z"/>
		<path fill="#FFFFFF" d="M380.9,451.7l-14.3,67.5c-0.4,1.8-0.6,3-0.6,3.9c0,2.8,1.4,4.6,6.2,4.6c5.1,0,11.5-7,16.5-11h4.2
			c-5.8,5.8-19.8,22.4-29.7,22.4c-9.6,0-15.5-4.2-15.5-13.6c0-1.8,0.3-3.9,0.7-6.3l13.9-65L380.9,451.7z"/>
		<path fill="#FFFFFF" d="M427.8,493.7c0.7,0.7,1.8,1.1,3.7,1.1c5.9,0,8.4-4.2,13.1-6.2l0.6,2.7c-3.9,4.9-10.4,9-17.6,11
			c-2.4,25.2-16,37.5-28.5,37.5c-13.4,0-19.1-5.6-19.1-20.5c0-30.8,15.6-44,32.9-44C424.6,475.4,427.6,484.7,427.8,493.7z
			 M418.3,503.7c-3.7,0-5.2-2.7-5.2-5.6c0-3.7,2.1-7.5,5.5-8.7c-0.4-4.1-1.7-6.5-5.2-6.5c-11.8,0-16.7,25.5-16.7,35.6
			c0,7.5,3.5,9.6,8.4,9.6C412.5,527.8,416.7,515.8,418.3,503.7z"/>
		<path fill="#FFFFFF" d="M517.1,485.4c0,19.5-9.8,53.7-35.2,53.7c-8.4,0-14.1-3.2-15.2-10.4c-5.9,5.3-12.7,10.4-17.9,10.4
			c-9.6,0-15.6-4.2-15.6-13.6c0-1.8,0.3-3.9,0.7-6.3l9-42.5h18l-9,42.5c-0.3,1.4-0.6,2.8-0.6,3.9c0,2.8,1.3,4.8,6.2,4.8
			c2.7,0,5.8-1.8,8.7-4.4c0-1.3,0.3-2.8,0.6-4.2l9-42.5h18l-9,42.5c-0.4,1.7-0.6,3.2-0.6,4.6c0,2.4,1.1,3.9,4.8,3.9
			c12.2,0,20.7-27.4,20.7-41.1c-0.7,0.3-1.8,0.6-2.7,0.6c-3.7,0-5.2-3.5-5.2-7c0-2.7,3-6.2,7.2-6.2
			C514.5,474.2,517.1,479,517.1,485.4z"/>
		<path fill="#BF0A30" d="M550.6,509.6c0,10.7,3,20.3,9.8,20.3c10.7,0,22.9-29.8,22.9-53.2c0-13.8-2.5-25.5-18.3-25.5
			c-20.3,0-33.8,11.4-33.8,30.4c0,6.3,1.7,7.3,1.7,8.4c-8.6,0-13.4-3.1-13.4-12.1c0-16.6,23.1-32.5,43.9-32.5
			c24.8,0,34.3,12.1,34.3,33.9c0,24.3-15,61-37.4,61c-16,0-25.6-7.5-25.6-28.3c0-23.3,8.3-56,26.7-56c1.8,0,3.8,0.4,5.9,1
			C557.3,470.7,550.6,489.1,550.6,509.6z"/>
		<path fill="#BF0A30" d="M660.7,476.7l-9,42.5c-0.3,1.4-0.6,2.8-0.6,3.9c0,2.8,1.3,4.8,6.2,4.8c5.1,0,11.5-7,16.5-11h4.2
			c-5.8,5.8-19.8,22.4-29.7,22.4c-8.4,0-14.2-3.2-15.3-10.5c-5.9,5.5-12.7,10.5-18,10.5c-9.6,0-15.6-4.2-15.6-13.6
			c0-1.8,0.3-3.9,0.7-6.3l9-42.5h18l-9,42.5c-0.3,1.4-0.6,2.8-0.6,3.9c0,2.8,1.3,4.8,6.2,4.8c2.7,0,5.8-2,8.9-4.5
			c0.1-1.3,0.4-2.7,0.7-4.1l9-42.5h18.4V476.7z"/>
		<path fill="#BF0A30" d="M684.9,519.2c-0.4,1.5-0.6,3-0.6,4.4c0,2.7,1,4.5,4.4,4.5c0.8,0,2.3,0,3.2-0.4c-3.5,10.7-9,11.5-13.2,11.5
			c-8.7,0-12.5-5.8-12.5-13.5c0-2,0.3-4.2,0.7-6.5l8-37.5h-4.1l1-5.1h4.1l3.8-17.3l18.6-2.5c0,0-1.8,8.4-4.2,19.8h7.5l-1,5.1h-7.5
			L684.9,519.2z"/>
	</g>
	<g>
		<path fill="#FFFFFF" d="M354.1,431.6c0,0-4.9-44.3,0.4-73.3C354.6,358.3,360.3,387,354.1,431.6z"/>
		<path fill="#FFFFFF" d="M366.2,401.6c0,0-17.2-12.8-24.2-25.2C342.1,376.4,354.4,383.5,366.2,401.6z"/>
		<path fill="#FFFFFF" d="M343.5,401.2c0,0,11.8-17.7,23.9-25.5C367.2,375.7,360.9,388.4,343.5,401.2z"/>
		<path fill="#FFFFFF" d="M378.8,389.2c0,0-29.5,3.5-48.9-0.3C329.8,389,348.9,384.9,378.8,389.2z"/>
		<circle fill="#FFFFFF" cx="354.6" cy="389.2" r="5.9"/>
	</g>
</g>
</svg>
