<svg xmlns="http://www.w3.org/2000/svg" viewBox="197.3 357.7 505.7 183.4">
  <path fill="#FFF" d="M257.3 486.8l-2.5 9.3H236l-9.3 43.2h-18l18-83.5c-9.6.6-16.3 6-16.3 25.9 0 6.3 1.7 7.3 1.7 8.4-8.6 0-13.4-3.1-13.4-12.1 0-16.6 11.8-32.5 42.6-32.5 5.1 0 12.9 1.5 20.8 1.5 3.9 0 7.7-.4 11.3-1.5-1.7 5.2-2.1 12.9-11.8 15-5.8 0-11.7-1.1-17.6-2.4l-6.2 28.8h19.4v-.1zM306.8 493.7c.7.7 1.8 1.1 3.7 1.1 5.9 0 8.4-4.2 13.1-6.2l.6 2.7c-3.9 4.9-10.4 9-17.6 11-2.4 25.2-16 37.5-28.5 37.5-13.4 0-19.1-5.6-19.1-20.5 0-30.8 15.6-44 32.9-44 11.6.1 14.6 9.4 14.9 18.4zm-9.6 10c-3.7 0-5.2-2.7-5.2-5.6 0-3.7 2.1-7.5 5.5-8.7-.4-4.1-1.7-6.5-5.2-6.5-11.8 0-16.7 25.5-16.7 35.6 0 7.5 3.5 9.6 8.4 9.6 7.4-.3 11.6-12.3 13.2-24.4z"/>
  <path fill="#FFF" d="M345 451.7l-14.3 67.5c-.4 1.8-.6 3-.6 3.9 0 2.8 1.4 4.6 6.2 4.6 5.1 0 11.5-7 16.5-11h4.2c-5.8 5.8-19.8 22.4-29.7 22.4-9.6 0-15.5-4.2-15.5-13.6 0-1.8.3-3.9.7-6.3l13.9-65 18.6-2.5z"/>
  <path fill="#FFF" d="M380.9 451.7l-14.3 67.5c-.4 1.8-.6 3-.6 3.9 0 2.8 1.4 4.6 6.2 4.6 5.1 0 11.5-7 16.5-11h4.2c-5.8 5.8-19.8 22.4-29.7 22.4-9.6 0-15.5-4.2-15.5-13.6 0-1.8.3-3.9.7-6.3l13.9-65 18.6-2.5z"/>
  <path fill="#FFF" d="M427.8 493.7c.7.7 1.8 1.1 3.7 1.1 5.9 0 8.4-4.2 13.1-6.2l.6 2.7c-3.9 4.9-10.4 9-17.6 11-2.4 25.2-16 37.5-28.5 37.5-13.4 0-19.1-5.6-19.1-20.5 0-30.8 15.6-44 32.9-44 11.7.1 14.7 9.4 14.9 18.4zm-9.5 10c-3.7 0-5.2-2.7-5.2-5.6 0-3.7 2.1-7.5 5.5-8.7-.4-4.1-1.7-6.5-5.2-6.5-11.8 0-16.7 25.5-16.7 35.6 0 7.5 3.5 9.6 8.4 9.6 7.4-.3 11.6-12.3 13.2-24.4z"/>
  <path fill="#FFF" d="M517.1 485.4c0 19.5-9.8 53.7-35.2 53.7-8.4 0-14.1-3.2-15.2-10.4-5.9 5.3-12.7 10.4-17.9 10.4-9.6 0-15.6-4.2-15.6-13.6 0-1.8.3-3.9.7-6.3l9-42.5h18l-9 42.5c-.3 1.4-.6 2.8-.6 3.9 0 2.8 1.3 4.8 6.2 4.8 2.7 0 5.8-1.8 8.7-4.4 0-1.3.3-2.8.6-4.2l9-42.5h18l-9 42.5c-.4 1.7-.6 3.2-.6 4.6 0 2.4 1.1 3.9 4.8 3.9 12.2 0 20.7-27.4 20.7-41.1-.7.3-1.8.6-2.7.6-3.7 0-5.2-3.5-5.2-7 0-2.7 3-6.2 7.2-6.2 5.5.1 8.1 4.9 8.1 11.3z"/>
  <path fill="#BF0A30" d="M550.6 509.6c0 10.7 3 20.3 9.8 20.3 10.7 0 22.9-29.8 22.9-53.2 0-13.8-2.5-25.5-18.3-25.5-20.3 0-33.8 11.4-33.8 30.4 0 6.3 1.7 7.3 1.7 8.4-8.6 0-13.4-3.1-13.4-12.1 0-16.6 23.1-32.5 43.9-32.5 24.8 0 34.3 12.1 34.3 33.9 0 24.3-15 61-37.4 61-16 0-25.6-7.5-25.6-28.3 0-23.3 8.3-56 26.7-56 1.8 0 3.8.4 5.9 1-10 13.7-16.7 32.1-16.7 52.6zM660.7 476.7l-9 42.5c-.3 1.4-.6 2.8-.6 3.9 0 2.8 1.3 4.8 6.2 4.8 5.1 0 11.5-7 16.5-11h4.2c-5.8 5.8-19.8 22.4-29.7 22.4-8.4 0-14.2-3.2-15.3-10.5-5.9 5.5-12.7 10.5-18 10.5-9.6 0-15.6-4.2-15.6-13.6 0-1.8.3-3.9.7-6.3l9-42.5h18l-9 42.5c-.3 1.4-.6 2.8-.6 3.9 0 2.8 1.3 4.8 6.2 4.8 2.7 0 5.8-2 8.9-4.5.1-1.3.4-2.7.7-4.1l9-42.5h18.4v-.3z"/>
  <path fill="#BF0A30" d="M684.9 519.2c-.4 1.5-.6 3-.6 4.4 0 2.7 1 4.5 4.4 4.5.8 0 2.3 0 3.2-.4-3.5 10.7-9 11.5-13.2 11.5-8.7 0-12.5-5.8-12.5-13.5 0-2 .3-4.2.7-6.5l8-37.5h-4.1l1-5.1h4.1l3.8-17.3 18.6-2.5s-1.8 8.4-4.2 19.8h7.5l-1 5.1h-7.5l-8.2 37.5z"/>
  <g fill="#FFF">
    <path d="M354.1 431.6s-4.9-44.3.4-73.3c.1 0 5.8 28.7-.4 73.3z"/>
    <path d="M366.2 401.6S349 388.8 342 376.4c.1 0 12.4 7.1 24.2 25.2z"/>
    <path d="M343.5 401.2s11.8-17.7 23.9-25.5c-.2 0-6.5 12.7-23.9 25.5z"/>
    <path d="M378.8 389.2s-29.5 3.5-48.9-.3c-.1.1 19-4 48.9.3z"/>
    <circle cx="354.6" cy="389.2" r="5.9"/>
  </g>
</svg>
