<?xml version="1.0" encoding="utf-8"?>
<!-- Generator: Adobe Illustrator 17.0.0, SVG Export Plug-In . SVG Version: 6.00 Build 0)  -->
<!DOCTYPE svg PUBLIC "-//W3C//DTD SVG 1.1//EN" "http://www.w3.org/Graphics/SVG/1.1/DTD/svg11.dtd" [
	<!ENTITY ns_extend "http://ns.adobe.com/Extensibility/1.0/">
	<!ENTITY ns_ai "http://ns.adobe.com/AdobeIllustrator/10.0/">
	<!ENTITY ns_graphs "http://ns.adobe.com/Graphs/1.0/">
	<!ENTITY ns_vars "http://ns.adobe.com/Variables/1.0/">
	<!ENTITY ns_imrep "http://ns.adobe.com/ImageReplacement/1.0/">
	<!ENTITY ns_sfw "http://ns.adobe.com/SaveForWeb/1.0/">
	<!ENTITY ns_custom "http://ns.adobe.com/GenericCustomNamespace/1.0/">
	<!ENTITY ns_adobe_xpath "http://ns.adobe.com/XPath/1.0/">
]>
<svg version="1.1" id="Layer_1" xmlns:x="&ns_extend;" xmlns:i="&ns_ai;" xmlns:graph="&ns_graphs;"
	 xmlns="http://www.w3.org/2000/svg" xmlns:xlink="http://www.w3.org/1999/xlink" x="0px" y="0px" width="15px" height="15px"
	 viewBox="-7.25 -6.25 15 15" enable-background="new -7.25 -6.25 15 15" xml:space="preserve">
<metadata>
	<sfw  xmlns="&ns_sfw;">
		<slices></slices>
		<sliceSourceBounds  height="15" width="15" bottomLeftOrigin="true" x="-7.5" y="-7.5"></sliceSourceBounds>
	</sfw>
</metadata>
<rect x="-7.25" y="-6.25" fill="#002868" width="15" height="15"/>
<g>
	<path fill="#FFFFFF" d="M0.23,6.25c0,0-0.67-6.05,0.06-10C0.29-3.75,1.08,0.17,0.23,6.25z"/>
	<path fill="#FFFFFF" d="M1.88,2.16c0,0-2.34-1.75-3.3-3.44C-1.44-1.27,0.25-0.31,1.88,2.16z"/>
	<path fill="#FFFFFF" d="M-1.25,2.1c0,0,1.61-2.42,3.26-3.47C2.02-1.37,1.15,0.36-1.25,2.1z"/>
	<path fill="#FFFFFF" d="M3.59,0.47c0,0-4.03,0.48-6.68-0.04C-3.09,0.43-0.48-0.12,3.59,0.47z"/>
	<circle fill="#FFFFFF" cx="0.29" cy="0.47" r="0.81"/>
</g>
</svg>
